<?xml version="1.0" standalone="no"?>
<!DOCTYPE svg PUBLIC "-//W3C//DTD SVG 20010904//EN"
 "http://www.w3.org/TR/2001/REC-SVG-20010904/DTD/svg10.dtd">
<svg version="1.0" xmlns="http://www.w3.org/2000/svg"
 width="74.000000pt" height="74.000000pt" viewBox="0 0 74.000000 74.000000"
 preserveAspectRatio="xMidYMid meet">
<metadata>
Created by potrace 1.14, written by Peter Selinger 2001-2017
</metadata>
<g transform="translate(0.000000,74.000000) scale(0.100000,-0.100000)"
fill="#000000" stroke="none">
<path d="M175 551 c4 -20 1 -38 -9 -54 -14 -20 -14 -26 -2 -43 12 -15 18 -17
33 -8 25 16 29 45 7 61 -16 11 -17 17 -6 34 14 22 8 39 -14 39 -12 0 -14 -7
-9 -29z"/>
<path d="M260 565 c0 -8 7 -15 15 -15 8 0 15 7 15 15 0 8 -7 15 -15 15 -8 0
-15 -7 -15 -15z"/>
<path d="M430 565 c0 -8 7 -15 15 -15 8 0 15 7 15 15 0 8 -7 15 -15 15 -8 0
-15 -7 -15 -15z"/>
<path d="M515 570 c-3 -5 0 -18 7 -29 11 -17 10 -23 -6 -34 -22 -16 -18 -45 7
-61 15 -9 21 -7 33 8 12 17 12 23 -2 43 -10 16 -13 34 -9 54 5 22 3 29 -9 29
-8 0 -17 -4 -21 -10z"/>
<path d="M257 514 c-3 -3 -1 -17 5 -30 9 -19 8 -28 -7 -45 -22 -23 -10 -54 20
-54 30 0 42 31 21 54 -13 14 -16 28 -11 50 5 23 3 31 -8 31 -7 0 -16 -3 -20
-6z"/>
<path d="M344 509 c-10 -17 13 -36 27 -22 12 12 4 33 -11 33 -5 0 -12 -5 -16
-11z"/>
<path d="M435 489 c5 -22 2 -36 -11 -50 -21 -23 -9 -54 21 -54 30 0 42 31 20
54 -15 17 -16 26 -7 45 11 26 7 36 -15 36 -11 0 -13 -8 -8 -31z"/>
<path d="M343 444 c-8 -21 13 -42 28 -27 13 13 5 43 -11 43 -6 0 -13 -7 -17
-16z"/>
<path d="M343 383 c-18 -7 -16 -60 2 -67 8 -3 22 -3 30 0 20 8 19 60 -1 68 -9
3 -16 6 -17 5 -1 0 -8 -3 -14 -6z"/>
<path d="M252 308 c-16 -16 -15 -28 5 -50 13 -14 14 -23 5 -42 -12 -26 -7 -36
16 -36 11 0 13 8 8 32 -4 22 -1 37 11 50 13 15 15 23 7 36 -14 22 -36 26 -52
10z"/>
<path d="M422 308 c-16 -16 -15 -33 3 -48 11 -9 14 -22 9 -46 -5 -26 -3 -34 8
-34 23 0 27 10 16 36 -9 19 -8 28 7 45 15 15 17 24 9 37 -14 22 -36 26 -52 10z"/>
<path d="M343 274 c-8 -21 13 -42 28 -27 13 13 5 43 -11 43 -6 0 -13 -7 -17
-16z"/>
<path d="M160 239 c-9 -16 -8 -24 5 -39 12 -13 15 -27 10 -48 -7 -33 3 -46 25
-32 13 8 13 13 2 31 -11 18 -11 24 2 38 21 23 20 57 0 65 -25 10 -33 7 -44
-15z"/>
<path d="M513 253 c-18 -7 -16 -43 3 -64 13 -14 13 -20 2 -38 -11 -18 -11 -23
2 -31 22 -14 32 -1 25 32 -5 21 -2 35 10 48 13 15 14 23 5 39 -11 21 -23 24
-47 14z"/>
<path d="M344 209 c-10 -17 13 -36 27 -22 12 12 4 33 -11 33 -5 0 -12 -5 -16
-11z"/>
<path d="M262 134 c4 -21 22 -23 26 -1 2 10 -3 17 -13 17 -10 0 -15 -6 -13
-16z"/>
<path d="M432 134 c4 -21 22 -23 26 -1 2 10 -3 17 -13 17 -10 0 -15 -6 -13
-16z"/>
</g>
</svg>
